<svg width="670" height="97" viewBox="0 0 670 97" fill="none" xmlns="http://www.w3.org/2000/svg">
<path d="M0.625 37.625C0.875 36.375 1.04167 35.375 1.125 34.625C1.20833 33.7917 0.916667 32.9167 0.25 32C0.583333 30.6667 0.833333 29.625 1 28.875C1.25 28.125 1.29167 27.0833 1.125 25.75C1.875 23.5833 3 21.75 4.5 20.25C6.08333 18.75 7.79167 17.5 9.625 16.5C11.4583 15.4167 13.375 14.5417 15.375 13.875C17.375 13.125 19.25 12.5 21 12C21 11.6667 20.8333 11.5 20.5 11.5C20.1667 11.5 20.0833 11.2917 20.25 10.875C24.75 10.0417 29.25 8.83333 33.75 7.25C38.3333 5.66667 43 4.25 47.75 3C52.5 1.75 57.375 1 62.375 0.75C67.375 0.416667 72.625 1.04167 78.125 2.625C78.4583 3.625 78.9167 4.58333 79.5 5.5C80.0833 6.41667 80.6667 7.33333 81.25 8.25C81.9167 9.08333 82.5 9.91667 83 10.75C83.5 11.5833 83.7917 12.4583 83.875 13.375C84.875 14.2917 85.6667 15.2917 86.25 16.375C86.9167 17.375 87.0417 18.75 86.625 20.5C85.7083 21.1667 84.75 21.8333 83.75 22.5C82.75 23.1667 81.7083 23.7917 80.625 24.375C76.875 23.4583 73.125 23.125 69.375 23.375C65.625 23.625 62.25 23.9167 59.25 24.25C58.3333 23.25 57.25 22.7917 56 22.875C54.75 22.875 53.4167 23.0833 52 23.5C50.6667 23.8333 49.3333 24.2083 48 24.625C46.6667 24.9583 45.4167 25.0417 44.25 24.875C43.3333 25.7083 42.125 26.2917 40.625 26.625C39.125 26.875 37.5417 27.0833 35.875 27.25C35.7917 27.6667 35.875 27.9583 36.125 28.125C36.375 28.2917 36.4167 28.625 36.25 29.125C36.8333 29.875 37.625 30.4167 38.625 30.75C39.625 31 40.625 31.25 41.625 31.5C42.7083 31.75 43.6667 32.125 44.5 32.625C45.3333 33.0417 45.875 33.75 46.125 34.75C47.625 34.8333 48.9167 35.25 50 36C51.0833 36.6667 52 37.5 52.75 38.5C53.5 39.5 54.0417 40.5833 54.375 41.75C54.7083 42.8333 54.8333 43.8333 54.75 44.75C55.0833 45.5833 55.4167 45.9167 55.75 45.75C56.1667 45.5833 56.625 45.7917 57.125 46.375C57.4583 47.625 58.2083 48.9583 59.375 50.375C60.625 51.7083 61.5833 53.1667 62.25 54.75C62.4167 57.25 62.5417 59.5 62.625 61.5C62.7917 63.5 62.4583 65.4583 61.625 67.375C60.2083 71.0417 58.1667 74.3333 55.5 77.25C52.8333 80.1667 49.7917 82.75 46.375 85C43.0417 87.1667 39.5 89.0833 35.75 90.75C32 92.3333 28.2917 93.6667 24.625 94.75C24.2917 94.6667 23.875 94.6667 23.375 94.75C22.9583 94.8333 22.875 94.5833 23.125 94C22.375 94.6667 21.5 95.0833 20.5 95.25C19.5833 95.4167 18.5417 95.4583 17.375 95.375C16.2917 95.375 15.1667 95.3333 14 95.25C12.9167 95.1667 11.8333 95.2083 10.75 95.375C10.0833 94.7083 9.45833 94.0417 8.875 93.375C8.375 92.7083 7.95833 91.9167 7.625 91C7.20833 90.9167 7 90.6667 7 90.25C7.08333 89.75 6.91667 89.5 6.5 89.5C6.5 89.1667 6.54167 88.9167 6.625 88.75C6.70833 88.5833 6.79167 88.4167 6.875 88.25C7.20833 88 7.33333 87.8333 7.25 87.75C7.25 87.5833 7.125 87.4583 6.875 87.375C6.70833 87.2083 6.5 87.0417 6.25 86.875C6.08333 86.7083 6.04167 86.5 6.125 86.25C6.54167 85.5 6.66667 84.625 6.5 83.625C6.41667 82.5417 6.33333 81.4583 6.25 80.375C6.16667 79.2917 6.25 78.2917 6.5 77.375C6.75 76.375 7.45833 75.5417 8.625 74.875C12.0417 75.2083 15.25 75.0417 18.25 74.375C21.3333 73.7083 24.2083 72.7917 26.875 71.625C29.625 70.4583 32.2083 69.2083 34.625 67.875C37.125 66.4583 39.5417 65.1667 41.875 64C42.125 63.1667 42.5 62.4583 43 61.875C43.5833 61.2917 44.1667 60.75 44.75 60.25C45.3333 59.6667 45.875 59.0833 46.375 58.5C46.875 57.8333 47.25 57.0417 47.5 56.125C47.5833 55.7917 47.5833 55.5417 47.5 55.375C47.4167 55.2083 47.2917 55.0833 47.125 55C46.9583 54.8333 46.7917 54.6667 46.625 54.5C46.4583 54.3333 46.375 54.0833 46.375 53.75C46.125 53.6667 45.875 53.5833 45.625 53.5C45.4583 53.4167 45.2917 53.375 45.125 53.375C42.9583 52.2917 40.6667 51.375 38.25 50.625C35.8333 49.875 33.7917 49.0417 32.125 48.125C31.125 48.7917 30.125 48.9583 29.125 48.625C28.125 48.2917 26.9167 47.9583 25.5 47.625C22 47.4583 18.6667 47.125 15.5 46.625C12.4167 46.125 9.41667 45.25 6.5 44C6.33333 43.5 6.125 43.0833 5.875 42.75C5.625 42.3333 5.04167 42.2083 4.125 42.375C3.54167 41.5417 2.91667 40.7917 2.25 40.125C1.66667 39.375 1.125 38.5417 0.625 37.625ZM95.375 82.25C94.5417 82.9167 94.0417 83.7917 93.875 84.875C93.7083 85.875 93.5 86.875 93.25 87.875C93 88.875 92.5417 89.75 91.875 90.5C91.2917 91.1667 90.2083 91.4583 88.625 91.375C88.2917 91.7917 88.2083 92.0417 88.375 92.125C88.625 92.2083 88.8333 92.5833 89 93.25C87.8333 93.0833 87 93.1667 86.5 93.5C86 93.8333 85.375 94.0833 84.625 94.25C82.7083 93.6667 81.0833 92.625 79.75 91.125C78.5 89.5417 77.375 87.8333 76.375 86C75.4583 84.1667 74.625 82.2917 73.875 80.375C73.2083 78.4583 72.5 76.7917 71.75 75.375C71.75 75.0417 71.9167 74.9167 72.25 75C72.5 75 72.75 75 73 75C72.5833 74.1667 72.2917 73.25 72.125 72.25C71.875 71.1667 71.4583 70.2917 70.875 69.625C73.2917 64.4583 75.875 59.0833 78.625 53.5C81.375 47.8333 84.125 42.125 86.875 36.375C89.7083 30.5417 92.5 24.7083 95.25 18.875C98.0833 12.9583 100.792 7.16667 103.375 1.5C105.708 2.33333 107.958 3.33333 110.125 4.5C112.375 5.58333 114.417 6.875 116.25 8.375C118.083 9.875 119.625 11.625 120.875 13.625C122.208 15.5417 123.083 17.75 123.5 20.25C123.333 20.75 123.125 20.9167 122.875 20.75C122.625 20.5833 122.417 20.6667 122.25 21C122.667 21.5 122.875 21.875 122.875 22.125C122.958 22.2917 122.958 22.5 122.875 22.75C122.792 22.9167 122.75 23.1667 122.75 23.5C122.75 23.8333 122.958 24.2917 123.375 24.875C122.958 24.7917 122.667 24.875 122.5 25.125C122.333 25.2917 122.042 25.2917 121.625 25.125C122.042 26.2917 122.167 27.2083 122 27.875C121.833 28.5417 121.583 29.1667 121.25 29.75C120.917 30.25 120.625 30.8333 120.375 31.5C120.208 32.0833 120.292 32.9167 120.625 34C120.292 34 120.042 34.0833 119.875 34.25C119.792 34.3333 119.708 34.4583 119.625 34.625C119.542 34.7917 119.417 34.9583 119.25 35.125C119.167 35.2083 118.958 35.2083 118.625 35.125C118.875 37.2917 118.958 39.5 118.875 41.75C118.792 43.9167 118.708 46.1667 118.625 48.5C118.542 50.75 118.542 53.0833 118.625 55.5C118.708 57.9167 119.042 60.4167 119.625 63C123.208 60.9167 126.083 58.2083 128.25 54.875C130.5 51.5417 132.25 47.8333 133.5 43.75C134.833 39.6667 135.833 35.2917 136.5 30.625C137.25 25.9583 138 21.2083 138.75 16.375C139.667 15.4583 140.375 14.3333 140.875 13C141.458 11.6667 141.917 10.2917 142.25 8.875C142.667 7.45833 143.042 6.04167 143.375 4.625C143.792 3.125 144.333 1.79167 145 0.625C146.5 0.791667 147.75 1.25 148.75 2C149.833 2.66667 150.833 3.45833 151.75 4.375C152.667 5.20833 153.625 6 154.625 6.75C155.625 7.5 156.875 8 158.375 8.25C159.542 9.91667 160.625 11.5417 161.625 13.125C162.625 14.625 163.292 16.3333 163.625 18.25C163.125 19.0833 162.75 20 162.5 21C162.25 22 161.958 23 161.625 24C161.375 25 161 25.9167 160.5 26.75C160 27.5833 159.292 28.2917 158.375 28.875C158.125 31.375 157.75 33.7083 157.25 35.875C156.75 38.0417 156.292 40.1667 155.875 42.25C155.458 44.3333 155.083 46.5 154.75 48.75C154.417 51 154.292 53.4583 154.375 56.125C153.625 58.5417 152.792 61.0417 151.875 63.625C150.958 66.125 150.292 68.4583 149.875 70.625C148.292 71.875 147.042 73.4167 146.125 75.25C145.208 77.0833 144.25 78.9167 143.25 80.75C142.833 81.0833 142.583 81.1667 142.5 81C142.417 80.75 142.042 80.5833 141.375 80.5C141.458 81.25 141.292 81.75 140.875 82C140.542 82.1667 140.583 82.75 141 83.75C139.583 84.4167 138.333 85.2917 137.25 86.375C136.167 87.4583 134.958 88.4583 133.625 89.375C132.375 90.2917 130.875 90.9167 129.125 91.25C127.458 91.5 125.25 91.125 122.5 90.125C118.417 87.125 114.75 83.6667 111.5 79.75C108.25 75.8333 105.667 71.2083 103.75 65.875C102.917 66.125 102.292 66.6667 101.875 67.5C101.458 68.3333 101.083 69.2083 100.75 70.125C100.417 71.0417 100.083 71.875 99.75 72.625C99.4167 73.375 98.9167 73.75 98.25 73.75C98.0833 74.5 97.75 75.2083 97.25 75.875C96.8333 76.4583 96.4167 77.0833 96 77.75C95.5833 78.3333 95.25 79 95 79.75C94.8333 80.5 94.9583 81.3333 95.375 82.25ZM167.375 89.75C166.708 89.0833 166.208 88.2917 165.875 87.375C165.625 86.4583 164.958 85.7083 163.875 85.125C163.708 83.875 163.458 82.4583 163.125 80.875C162.875 79.2083 162.583 77.5417 162.25 75.875C162 74.125 161.792 72.4167 161.625 70.75C161.542 69 161.625 67.4167 161.875 66C162.042 65.25 162.292 64.5417 162.625 63.875C163.042 63.2083 163.417 62.5833 163.75 62C164.167 61.3333 164.458 60.6667 164.625 60C164.875 59.3333 164.917 58.6667 164.75 58C165.25 57.9167 165.542 57.6667 165.625 57.25C165.792 56.75 166.208 56.5833 166.875 56.75C167.458 54.9167 168.083 53.2083 168.75 51.625C169.417 50.0417 170.125 48.5 170.875 47C171.625 45.5 172.375 44 173.125 42.5C173.958 40.9167 174.708 39.1667 175.375 37.25C173.958 35.9167 172.917 34.5 172.25 33C171.667 31.4167 171.208 29.8333 170.875 28.25C170.542 26.6667 170.292 25.0833 170.125 23.5C169.958 21.8333 169.625 20.1667 169.125 18.5C170.125 17 171.333 15.7917 172.75 14.875C174.167 13.875 175.708 13.0833 177.375 12.5C179.125 11.8333 181 11.3333 183 11C185 10.5833 187.125 10.125 189.375 9.625C193.375 8.375 196.958 7.41667 200.125 6.75C203.292 6 206.375 5.41667 209.375 5C212.375 4.5 215.5 4.08333 218.75 3.75C222 3.33333 225.75 2.75 230 2C230.083 2.25 230.208 2.375 230.375 2.375C230.625 2.375 230.917 2.375 231.25 2.375C231.5 2.95833 231.958 3.25 232.625 3.25C232.625 3 232.583 2.79167 232.5 2.625C232.5 2.375 232.5 2.16667 232.5 2C232.667 2 232.875 2.04167 233.125 2.125C233.458 2.20833 233.708 2.29167 233.875 2.375C234.125 2.45833 234.333 2.45833 234.5 2.375C234.667 2.20833 234.708 1.91667 234.625 1.5C235.625 3.25 236.917 4.70833 238.5 5.875C240.083 6.95833 241.833 7.91667 243.75 8.75C243.833 9.5 243.833 10.0417 243.75 10.375C243.75 10.7083 243.708 11.0417 243.625 11.375C243.542 11.625 243.5 11.9583 243.5 12.375C243.5 12.7083 243.583 13.2083 243.75 13.875C242.417 16.125 240.875 17.875 239.125 19.125C237.458 20.375 235.667 21.3333 233.75 22C231.833 22.6667 229.792 23.1667 227.625 23.5C225.542 23.8333 223.375 24.2083 221.125 24.625C218.958 24.9583 216.75 25.4583 214.5 26.125C212.25 26.7917 210.042 27.7917 207.875 29.125C207.208 28.875 206.583 28.7917 206 28.875C205.5 28.875 204.958 28.9583 204.375 29.125C203.792 29.2917 203.125 29.4583 202.375 29.625C201.708 29.7917 200.875 29.7917 199.875 29.625C199.208 30.2083 198.417 30.625 197.5 30.875C196.667 31.125 195.792 31.375 194.875 31.625C195.292 32.5417 195.458 33.4583 195.375 34.375C195.375 35.2917 195.5 36.0833 195.75 36.75C199.25 37.0833 203.125 37.0833 207.375 36.75C211.625 36.3333 215.792 36.0417 219.875 35.875C219.958 36.2917 219.917 36.5833 219.75 36.75C219.583 36.9167 219.5 37.2083 219.5 37.625C220.25 38.125 220.958 38.75 221.625 39.5C222.292 40.25 222.958 41 223.625 41.75C224.375 42.4167 225.125 43 225.875 43.5C226.625 43.9167 227.5 44.0833 228.5 44C228.917 44.8333 229.208 45.7083 229.375 46.625C229.542 47.5417 229.417 48.5 229 49.5C227.333 50.5833 225.708 51.7083 224.125 52.875C222.542 53.9583 220.875 54.9583 219.125 55.875C217.458 56.7917 215.625 57.5417 213.625 58.125C211.625 58.7083 209.458 58.9583 207.125 58.875C206.708 58.875 206.333 58.875 206 58.875C205.75 58.875 205.417 58.7083 205 58.375C204.167 58.7917 203.042 58.9583 201.625 58.875C200.292 58.7083 199.167 58.8333 198.25 59.25C197.083 58.8333 195.708 58.625 194.125 58.625C192.625 58.625 191.292 58.4167 190.125 58C188.625 60.1667 187.208 62.4583 185.875 64.875C184.542 67.2083 183.375 69.7083 182.375 72.375C185.792 72.875 188.625 73.0833 190.875 73C193.125 72.9167 195.25 72.75 197.25 72.5C199.25 72.25 201.292 72 203.375 71.75C205.542 71.5 208.167 71.4167 211.25 71.5C213.333 70.5 215.708 69.8333 218.375 69.5C221.125 69.0833 223.667 68.5 226 67.75C226.833 68 227.542 68.5 228.125 69.25C228.708 69.9167 229.25 70.625 229.75 71.375C230.333 72.0417 230.917 72.625 231.5 73.125C232.083 73.625 232.833 73.7917 233.75 73.625C234.167 74.0417 234.417 74.5417 234.5 75.125C234.667 75.7083 234.792 76.25 234.875 76.75C235.042 77.25 235.25 77.6667 235.5 78C235.75 78.25 236.208 78.3333 236.875 78.25C235.292 81.5 233.5 84 231.5 85.75C229.583 87.5 227.375 88.875 224.875 89.875C222.458 90.7917 219.708 91.5 216.625 92C213.625 92.4167 210.25 92.9583 206.5 93.625C205.583 93.7917 204.792 93.7917 204.125 93.625C203.542 93.375 202.917 93.25 202.25 93.25C199.917 93.6667 197.125 94.0833 193.875 94.5C190.708 94.9167 187.5 95.0833 184.25 95C181 94.9167 177.875 94.5 174.875 93.75C171.875 93 169.375 91.6667 167.375 89.75ZM237.375 82.125L239 80.875L239.125 78.25C241.208 73.1667 243.333 68.2917 245.5 63.625C247.75 58.9583 250.083 54.1667 252.5 49.25C253.25 47.6667 254 46.0833 254.75 44.5C255.583 42.9167 256.375 41.2917 257.125 39.625C257.042 39.2917 257 38.9583 257 38.625C257 38.2083 257.083 37.75 257.25 37.25C258.417 35.5833 259.333 34.0833 260 32.75C260.75 31.4167 261.458 30.0417 262.125 28.625C262.875 26.9583 263.667 25.2917 264.5 23.625C265.417 21.9583 266.542 20.3333 267.875 18.75L268.75 17.5L270.125 17.625C270.458 17.4583 270.792 17.3333 271.125 17.25C271.542 17.0833 272.042 17 272.625 17L274.875 17.375C277.625 16.125 280.042 14.3333 282.125 12C284.292 9.58333 286.458 6.70833 288.625 3.375L290.125 1.25L292.125 2.5C292.542 2.75 293.208 3 294.125 3.25C295.042 3.5 296 3.79167 297 4.125C298.75 4.54167 300.458 5.04167 302.125 5.625C303.792 6.125 305.083 6.83333 306 7.75L306.625 8.875C306.792 9.79167 306.917 10.625 307 11.375C307.167 12.125 307.333 12.875 307.5 13.625C307.833 15.375 308.125 17.125 308.375 18.875C308.625 20.5417 308.792 22.4167 308.875 24.5C309.292 26.1667 309.667 27.875 310 29.625C310.417 31.2917 310.792 32.9583 311.125 34.625C311.542 37.0417 312 39.375 312.5 41.625C313 43.7917 313.667 45.875 314.5 47.875C315.333 47.875 315.833 47.9167 316 48C317 47.5833 318.167 47.3333 319.5 47.25L321.125 47.125L321.625 48.625C321.792 48.875 322 49.125 322.25 49.375C322.5 49.625 322.792 49.875 323.125 50.125C324.458 50.2083 325.417 50.5 326 51C326.667 51.4167 327.208 51.8333 327.625 52.25C327.792 52.4167 328 52.625 328.25 52.875C328.5 53.0417 328.708 53.1667 328.875 53.25L331.125 54.125L329.875 56.5C328.958 58.25 327.542 59.9583 325.625 61.625C323.792 63.2917 321.708 64.6667 319.375 65.75C319.542 66.3333 319.625 66.875 319.625 67.375C319.708 67.875 319.833 68.4583 320 69.125C320.333 70.7917 320.583 72.5417 320.75 74.375C321 76.125 321 77.9583 320.75 79.875C319.917 82.0417 318.917 84 317.75 85.75C316.667 87.4167 315.333 88.9583 313.75 90.375C312.25 91.7083 310.542 92.8333 308.625 93.75C306.708 94.5833 304.708 95.0417 302.625 95.125C301.458 94.875 300.583 94.5833 300 94.25C299.5 93.9167 299.042 93.5833 298.625 93.25C297.958 92.75 297.417 92.4167 297 92.25L295.375 91.5L295.875 89.625C296.125 88.9583 296.083 88.375 295.75 87.875C295.5 87.375 294.917 86.7083 294 85.875C293.667 85.625 293.375 85.375 293.125 85.125C292.875 84.7917 292.583 84.4583 292.25 84.125L289.75 81.25L293.875 80.125C296.375 79.4583 298.042 78.625 298.875 77.625C299.708 76.5417 300.042 74.6667 299.875 72C297.792 71.5833 296.083 71.5417 294.75 71.875C293.417 72.125 292.083 72.4167 290.75 72.75C288.833 73.25 286.958 73.7083 285.125 74.125C283.292 74.4583 281.292 74.625 279.125 74.625C277.708 74.625 276.208 74.5 274.625 74.25L273.25 74.125L272.875 72.75C272.875 72.5833 272.75 72.4167 272.5 72.25C272.333 72 272.167 71.7917 272 71.625C271.583 71.125 271.083 70.4583 270.5 69.625C269.917 68.7917 269.792 67.75 270.125 66.5C269.542 65.5833 269.208 64.625 269.125 63.625C268.792 64.2917 268.5 64.9583 268.25 65.625C268.083 66.2083 267.917 66.7917 267.75 67.375L267.25 69L265.625 69.25C265.458 69.4167 265.292 69.6667 265.125 70C265.042 70.3333 265.042 70.5833 265.125 70.75L265.625 72.125L264.375 73.25C264.208 73.5 264 73.7083 263.75 73.875C263.5 74.0417 263.292 74.2083 263.125 74.375C262.958 75.2917 262.708 76.1667 262.375 77C262.125 77.8333 261.833 78.6667 261.5 79.5C261.083 80.8333 260.667 82.125 260.25 83.375C259.917 84.625 259.75 85.875 259.75 87.125L259.25 88.75C258.833 89.4167 258.292 89.9167 257.625 90.25C257.042 90.5833 256.458 90.875 255.875 91.125C255.042 91.4583 254.458 91.7917 254.125 92.125L253.75 93.75L251.875 94C250.792 94.25 250 94.4167 249.5 94.5C249.083 94.5833 248.583 94.625 248 94.625L246.375 94.5C245.375 93.5 244.542 92.75 243.875 92.25C243.292 91.6667 242.583 91.1667 241.75 90.75L241 89.75C240.667 89.0833 240.458 88.5 240.375 88C240.292 87.4167 240.167 86.8333 240 86.25C239.833 85.1667 239.583 84.4167 239.25 84L237.375 82.125ZM277.25 49.625C276.083 51.2917 274.958 53.0417 273.875 54.875C274.458 54.7917 275 54.75 275.5 54.75C276.083 54.75 276.667 54.7083 277.25 54.625C280.167 54.4583 282.875 54.25 285.375 54C287.875 53.75 290.583 53.3333 293.5 52.75C292.833 49.6667 292.083 46.5417 291.25 43.375C290.5 40.125 289.667 36.875 288.75 33.625L288.125 34.875C286.042 37.125 284.042 39.5417 282.125 42.125C280.208 44.7083 278.625 47.1667 277.375 49.5L277.25 49.625ZM333 71.125C333.083 70.7917 333.125 70.5417 333.125 70.375C333.208 70.2083 333.083 70 332.75 69.75C332.583 69.1667 332.708 68.7917 333.125 68.625C333.542 68.4583 333.958 68.2917 334.375 68.125C334.792 63.125 335.625 58.5833 336.875 54.5C338.208 50.3333 339.625 46.2917 341.125 42.375C342.708 38.4583 344.25 34.5417 345.75 30.625C347.333 26.625 348.625 22.2917 349.625 17.625C350.708 16.5417 351.583 15.25 352.25 13.75C353 12.25 353.708 10.75 354.375 9.25C355.125 7.66667 355.958 6.16667 356.875 4.75C357.875 3.33333 359.208 2.16667 360.875 1.25C361.625 1.33333 362.292 1.5 362.875 1.75C363.542 1.91667 364.167 2.125 364.75 2.375C365.333 2.625 365.958 2.83333 366.625 3C367.292 3.16667 368 3.25 368.75 3.25C369.083 3.66667 369.375 4.16667 369.625 4.75C369.875 5.25 370.208 5.70833 370.625 6.125L372.875 5.75C373.958 6.66667 374.917 7.83333 375.75 9.25C376.583 10.5833 377.167 12 377.5 13.5C377.833 14.9167 377.792 16.3333 377.375 17.75C376.958 19.0833 376 20.125 374.5 20.875C374.583 21.375 374.583 21.75 374.5 22C374.417 22.25 374.292 22.5 374.125 22.75C374.042 22.9167 374 23.125 374 23.375C374 23.5417 374.167 23.7917 374.5 24.125C373.583 24.875 372.75 25.8333 372 27C371.25 28.0833 370.625 29.25 370.125 30.5C369.625 31.75 369.208 33 368.875 34.25C368.625 35.5 368.458 36.6667 368.375 37.75C370.792 35.25 373.625 32.9167 376.875 30.75C380.125 28.5833 382.958 26.5417 385.375 24.625C387.292 23.2917 388.958 22.0417 390.375 20.875C391.875 19.625 393.375 18.5 394.875 17.5C396.375 16.4167 397.917 15.4167 399.5 14.5C401.167 13.5 402.833 12.4167 404.5 11.25C405.333 10.9167 405.958 10.8333 406.375 11C406.875 11.1667 407.333 11.375 407.75 11.625C407.833 11.0417 407.708 10.7083 407.375 10.625C407.042 10.4583 406.917 10.0417 407 9.375C408.417 8.95833 409.667 8.45833 410.75 7.875C411.917 7.29167 413.125 6.75 414.375 6.25C415.208 7.16667 416.042 8.16667 416.875 9.25C417.708 10.25 418.833 10.7917 420.25 10.875C420.75 11.9583 421.333 12.7917 422 13.375C422.75 13.875 423.458 14.375 424.125 14.875C424.875 15.375 425.5 16 426 16.75C426.5 17.4167 426.792 18.5 426.875 20C426.542 20.6667 426.125 21.4167 425.625 22.25C425.208 23 424.833 23.9583 424.5 25.125C422.5 26.9583 420.458 28.5833 418.375 30C416.375 31.3333 414.292 32.625 412.125 33.875C410.042 35.125 407.875 36.4167 405.625 37.75C403.458 39.0833 401.25 40.625 399 42.375C398.5 43.125 397.875 43.7917 397.125 44.375C396.375 44.9583 395.583 45.5417 394.75 46.125C394 46.625 393.25 47.1667 392.5 47.75C391.833 48.3333 391.292 49.0417 390.875 49.875C390.542 49.875 390.25 49.9167 390 50C389.75 50 389.458 50.0417 389.125 50.125C388.792 50.7917 388.292 51.3333 387.625 51.75C387.042 52.1667 386.625 52.7083 386.375 53.375C387.875 56.625 389.833 59.0833 392.25 60.75C394.667 62.4167 397.375 63.625 400.375 64.375C403.375 65.125 406.625 65.5417 410.125 65.625C413.625 65.7083 417.25 65.75 421 65.75C421.417 65.6667 421.583 65.4583 421.5 65.125C421.5 64.7083 421.75 64.5417 422.25 64.625C423.5 65.0417 424.542 65.5417 425.375 66.125C426.208 66.7083 427 67.3333 427.75 68C428.5 68.6667 429.208 69.375 429.875 70.125C430.625 70.7917 431.458 71.5 432.375 72.25C432.208 76.1667 431.042 79.375 428.875 81.875C426.792 84.2917 424 86.25 420.5 87.75C415.667 87.9167 411.458 87.7917 407.875 87.375C404.292 86.9583 400.75 86.0417 397.25 84.625C397 84.5417 396.75 84.2917 396.5 83.875C396.333 83.4583 396.167 83.1667 396 83C395.333 82.5833 394.583 82.4167 393.75 82.5C392.917 82.5833 392.208 82.5 391.625 82.25C390.875 81.9167 389.625 81.1667 387.875 80C386.208 78.8333 384.667 77.75 383.25 76.75C381.5 75.3333 379.792 73.9583 378.125 72.625C376.542 71.2083 375.125 69.6667 373.875 68C373.625 67.5833 373.25 67.375 372.75 67.375C372.333 67.375 371.917 67.25 371.5 67C368.583 68.8333 366.125 71.125 364.125 73.875C362.208 76.5417 360.333 79.2917 358.5 82.125C356.667 84.875 354.708 87.5 352.625 90C350.625 92.4167 348.083 94.2917 345 95.625C344.083 95.625 343.292 95.4583 342.625 95.125C341.958 94.875 341.333 94.5 340.75 94C340.167 93.5833 339.583 93.1667 339 92.75C338.417 92.3333 337.75 92.0417 337 91.875C337 90.7083 336.75 89.625 336.25 88.625C335.833 87.5417 335.375 86.5833 334.875 85.75C334.458 84.8333 334.125 83.9583 333.875 83.125C333.708 82.2917 333.958 81.4583 334.625 80.625C333.708 79.875 332.833 79.25 332 78.75C332.583 78.1667 332.833 77.625 332.75 77.125C332.75 76.625 332.625 76.125 332.375 75.625C332.125 75.125 331.917 74.625 331.75 74.125C331.667 73.5417 331.833 72.9167 332.25 72.25C332.583 72.1667 332.708 72 332.625 71.75C332.625 71.5 332.75 71.2917 333 71.125ZM435.375 68.625C432.875 67.2083 430.958 65.2083 429.625 62.625C428.292 60.0417 427.542 57.5833 427.375 55.25C427.625 53.25 428.167 51.7083 429 50.625C429.75 49.4583 430.667 48.5417 431.75 47.875C432.833 47.125 433.958 46.5833 435.125 46.25C436.292 45.8333 437.417 45.5 438.5 45.25L440.375 45.875C440.792 46.2917 441.208 46.6667 441.625 47C442.125 47.3333 442.583 47.6667 443 48C443.833 47.6667 444.333 47.1667 444.5 46.5C444.75 45.8333 445 45.1667 445.25 44.5C445.5 43.5833 445.792 42.6667 446.125 41.75C446.458 40.8333 446.875 39.9167 447.375 39C447.292 38.25 447.333 37.5833 447.5 37C447.667 36.4167 447.833 35.9167 448 35.5C447.5 35.0833 447.125 34.875 446.875 34.875C446.708 34.7917 446.375 34.6667 445.875 34.5C445.625 34.5 445.375 34.5 445.125 34.5C444.875 34.4167 444.583 34.3333 444.25 34.25C443 33.3333 442.167 32.5833 441.75 32C441.417 31.3333 441.042 30.6667 440.625 30C440.208 29.3333 439.833 28.75 439.5 28.25C439.167 27.75 438.792 27.2917 438.375 26.875L436.875 25.875L437.625 24.375C437.792 24.2083 437.875 24 437.875 23.75C437.875 23.4167 437.708 22.9583 437.375 22.375C437.125 21.2917 437.083 20.5 437.25 20L437.5 18.5C438.333 17.4167 438.792 16.7917 438.875 16.625L440.125 15.375C442.042 14.875 444 14.3333 446 13.75C448 13.0833 449.958 12.4167 451.875 11.75C453.792 11.0833 455.75 10.4167 457.75 9.75C459.75 9.08333 461.75 8.5 463.75 8C464.417 7.41667 465.125 7.08333 465.875 7C466.708 6.83333 467.458 6.70833 468.125 6.625C468.708 6.625 469.25 6.58333 469.75 6.5C470.25 6.41667 470.625 6.20833 470.875 5.875C472.292 5.375 473.667 4.95833 475 4.625C477.5 3.95833 480.792 3.16667 484.875 2.25C488.958 1.33333 493.542 0.666667 498.625 0.25L501.25 0.125C501.75 0.208333 502.25 0.25 502.75 0.25C503.25 0.166667 503.75 0.125 504.25 0.125C508.583 0.125 511.458 1.45833 512.875 4.125C513.708 4.54167 514.458 5.08333 515.125 5.75C515.792 6.33333 516.417 6.91667 517 7.5C517.417 7.91667 517.792 8.29167 518.125 8.625C518.458 8.875 518.75 9.08333 519 9.25L520 10.25C520.917 12.25 521.083 14.2083 520.5 16.125C520 17.125 519.458 17.7083 518.875 17.875C518.292 18.0417 517.708 18.2083 517.125 18.375L515.5 19.25C514.417 19.1667 513.583 19.125 513 19.125C512.5 19.125 511.917 19.125 511.25 19.125C508.75 19.125 505.833 19.2917 502.5 19.625C499.25 19.875 495.917 20.2917 492.5 20.875C489.083 21.375 485.75 22.0417 482.5 22.875C479.25 23.625 476.417 24.4583 474 25.375C473.333 25.875 472.458 26.3333 471.375 26.75C471.125 26.8333 470.75 27.0417 470.25 27.375C470.333 28.0417 470.333 28.7083 470.25 29.375C470.167 29.9583 470.042 30.5417 469.875 31.125C469.792 31.5417 469.708 32 469.625 32.5C469.625 32.9167 469.583 33.375 469.5 33.875C467.75 35.9583 466.917 38.4167 467 41.25L466.375 42.5C466.042 42.8333 465.75 43.3333 465.5 44C465.333 44.5833 465.333 45.2083 465.5 45.875L466 47.375C467.667 47.2083 469.292 47.0417 470.875 46.875C472.542 46.625 474.292 46.375 476.125 46.125C478.458 45.7083 480.792 45.375 483.125 45.125C485.542 44.7917 488.042 44.625 490.625 44.625H495.5L494.375 45.75L495.75 45.875L495 47.875C495.583 48.125 496 48.3333 496.25 48.5C496.583 48.5833 496.875 48.7083 497.125 48.875L498 50.125C498.417 50.375 498.792 50.7917 499.125 51.375C499.458 51.875 499.667 52.5833 499.75 53.5L499.375 54.75L493.5 62.25L492.75 63.25L491.5 62.875C489.917 62.7917 488.417 62.9583 487 63.375C486.333 63.5417 485.625 63.75 484.875 64C484.125 64.1667 483.375 64.25 482.625 64.25C480.625 64.5833 478.958 64.875 477.625 65.125C476.292 65.2917 474.958 65.4583 473.625 65.625C471.792 65.9583 470 66.2917 468.25 66.625C466.583 66.875 465 67.2917 463.5 67.875C462.583 67.9583 462.042 68 461.875 68C461.708 67.9167 461.542 67.875 461.375 67.875C460.542 67.875 459.708 68 458.875 68.25C458.042 68.5 457.25 68.75 456.5 69C456 69.4167 455.667 69.875 455.5 70.375C455.333 70.7917 455.167 71.25 455 71.75C454.833 72.3333 454.583 72.9167 454.25 73.5C454 74 453.667 74.5417 453.25 75.125L453.375 77.375C452.625 77.5417 452.25 77.6667 452.25 77.75C452.25 77.75 452.208 77.75 452.125 77.75C452.125 78.4167 452 79.0417 451.75 79.625C451.583 80.2083 451.417 80.75 451.25 81.25C451.083 81.5833 450.958 81.875 450.875 82.125C450.792 82.375 450.75 82.625 450.75 82.875C451.583 84.375 451.792 86.0833 451.375 88C451.042 89.5833 450.417 91 449.5 92.25C448.583 93.4167 447.5 94.3333 446.25 95C444.917 95.1667 443.917 95.125 443.25 94.875C442.667 94.625 442.042 94.375 441.375 94.125C440.958 93.9583 440.542 93.8333 440.125 93.75C439.708 93.5833 439.292 93.4583 438.875 93.375L437.375 92.125C437.125 91.625 436.833 91.1667 436.5 90.75C436.167 90.25 435.833 89.75 435.5 89.25C435.083 88.6667 434.667 88.0833 434.25 87.5C433.833 86.9167 433.458 86.25 433.125 85.5C432.542 82.5833 432.417 80.1667 432.75 78.25C433.167 76.25 433.708 74.2917 434.375 72.375C434.542 71.7083 434.708 71.0833 434.875 70.5C435.042 69.9167 435.208 69.2917 435.375 68.625ZM505.625 95.5C504.458 94.75 503.542 93.7917 502.875 92.625C502.125 91.4583 501.542 90.2083 501.125 88.875C500.625 87.5417 500.25 86.1667 500 84.75C499.667 83.25 499.333 81.8333 499 80.5C499 79.3333 499.25 78.5 499.75 78C500.25 77.4167 500.792 76.875 501.375 76.375C503.375 76.2917 505.167 76.125 506.75 75.875C508.333 75.625 509.875 75.375 511.375 75.125C512.875 74.875 514.375 74.6667 515.875 74.5C517.375 74.25 519 74.125 520.75 74.125C522 71.5417 523.167 69.0833 524.25 66.75C525.333 64.3333 526.375 62.0417 527.375 59.875C527.875 57.7917 528.5 55.875 529.25 54.125C530.083 52.2917 530.875 50.5833 531.625 49C532.375 47.3333 533.042 45.7083 533.625 44.125C534.208 42.4583 534.583 40.7083 534.75 38.875C535.75 35.9583 536.625 33.2917 537.375 30.875C538.208 28.375 538.833 25.4167 539.25 22C536.083 22.5 533.542 23 531.625 23.5C529.708 23.9167 528.333 24.3333 527.5 24.75C525.833 24.6667 524.5 24.3333 523.5 23.75C522.583 23.1667 521.833 22.4583 521.25 21.625C520.667 20.7917 520.167 19.8333 519.75 18.75C519.333 17.6667 518.833 16.5417 518.25 15.375C518.583 14.625 518.667 13.5417 518.5 12.125C518.333 10.625 517.833 9.54167 517 8.875C517.667 8.70833 518.167 8.16667 518.5 7.25C518.833 6.25 518.875 5.5 518.625 5C520.042 4.58333 521.542 4.33333 523.125 4.25C524.708 4.08333 526.25 3.95833 527.75 3.875C529.333 3.70833 530.833 3.54167 532.25 3.375C533.667 3.125 534.875 2.66667 535.875 2C540.208 1.83333 544.708 1.66667 549.375 1.5C554.125 1.33333 558.5 1.125 562.5 0.875C564 1.375 565.708 1.625 567.625 1.625C569.625 1.625 571.583 1.75 573.5 2C575.5 2.25 577.25 2.79167 578.75 3.625C580.333 4.45833 581.417 5.91667 582 8C583.25 8.16667 584.167 8.5 584.75 9C585.417 9.5 585.833 10.125 586 10.875C586.167 11.5417 586.208 12.3333 586.125 13.25C586.125 14.0833 586.125 14.9167 586.125 15.75C584.792 16.75 583.083 17.5833 581 18.25C579 18.8333 576.792 19.3333 574.375 19.75C571.958 20.0833 569.417 20.3333 566.75 20.5C564.167 20.5833 561.625 20.6667 559.125 20.75C558.708 23.5 557.958 26.75 556.875 30.5C555.875 34.1667 554.833 37.7917 553.75 41.375C552.667 44.875 551.708 48.0417 550.875 50.875C550.125 53.625 549.792 55.4167 549.875 56.25C549.042 58.1667 548.333 59.7917 547.75 61.125C547.25 62.4583 546.75 63.7083 546.25 64.875C545.833 66.0417 545.375 67.2083 544.875 68.375C544.458 69.4583 543.917 70.7083 543.25 72.125H551.75C551.917 73.0417 552.292 73.6667 552.875 74C553.458 74.3333 554.083 74.625 554.75 74.875C555.417 75.125 556 75.4583 556.5 75.875C557.083 76.2083 557.375 76.7917 557.375 77.625C558.958 78.0417 559.958 78.6667 560.375 79.5C560.792 80.3333 560.875 81.25 560.625 82.25C560.458 83.1667 560.042 84.125 559.375 85.125C558.792 86.125 558.208 87 557.625 87.75C556.875 87.5833 556.167 87.7917 555.5 88.375C554.833 88.875 554.208 89.4583 553.625 90.125C551.208 89.7917 548.833 89.75 546.5 90C544.167 90.25 542 90.4583 540 90.625C539.583 90.7083 539.417 90.9583 539.5 91.375C539.583 91.7083 539.5 91.9583 539.25 92.125C536.667 91.2917 534 90.9583 531.25 91.125C528.583 91.2917 525.833 91.7083 523 92.375C520.25 92.9583 517.417 93.5833 514.5 94.25C511.583 95 508.625 95.4167 505.625 95.5ZM572.25 23.5C572.167 22.8333 572 22.25 571.75 21.75C571.583 21.1667 571.375 20.5417 571.125 19.875C570.708 18.875 570.333 17.7917 570 16.625C569.667 15.4583 569.5 14.0833 569.5 12.5C569.667 11.6667 569.875 11.0833 570.125 10.75C570.375 10.3333 570.625 10 570.875 9.75L571.375 7.5H573.25C573.917 7.58333 574.583 7.625 575.25 7.625C576 7.625 576.708 7.625 577.375 7.625C580.542 7.625 583.792 7.5 587.125 7.25C590.458 7 593.875 6.70833 597.375 6.375C601.208 5.875 605.333 5.5 609.75 5.25C610.167 4.33333 610.417 3.75 610.5 3.5C610.667 3.25 610.833 2.95833 611 2.625L612.375 1.875C614.292 1.79167 615.625 2.04167 616.375 2.625C617.125 3.125 617.708 3.625 618.125 4.125C620.292 3.95833 622.5 3.75 624.75 3.5C627 3.16667 629.333 2.83333 631.75 2.5C635.083 2.08333 638.458 1.66667 641.875 1.25C645.292 0.833333 648.625 0.625 651.875 0.625C653.292 0.625 654.625 0.666667 655.875 0.75C657.125 0.833333 658.333 0.958333 659.5 1.125L661 2.25C661.333 2.83333 661.75 3.375 662.25 3.875C662.75 4.375 663.333 4.875 664 5.375C665.25 6.375 666.458 7.625 667.625 9.125C668.875 10.625 669.333 12.8333 669 15.75L668.375 17C668.042 17.3333 667.625 17.6667 667.125 18L665.875 19.625H664.5C663.667 19.625 663.042 19.7083 662.625 19.875C662.208 19.9583 661.708 20.125 661.125 20.375C660.792 20.5417 660.417 20.7083 660 20.875C659.583 20.9583 659.125 21.0833 658.625 21.25C657.708 21.1667 657 21.125 656.5 21.125C656 21.125 655.417 21.125 654.75 21.125C652.25 21.125 649.542 21.2917 646.625 21.625C643.708 21.9583 640.875 22.3333 638.125 22.75C636.125 23 634.208 23.25 632.375 23.5C630.542 23.6667 628.875 23.8333 627.375 24C626.542 26.1667 625.792 28.0833 625.125 29.75C624.458 31.4167 623.75 33.0833 623 34.75C622.25 36.4167 621.542 38.125 620.875 39.875C620.208 41.5417 619.583 43.4167 619 45.5C618 47 617.167 48.4583 616.5 49.875C615.833 51.2083 615.292 52.75 614.875 54.5C613.625 55.9167 612.708 57.4583 612.125 59.125C611.625 60.7917 611.167 62.2083 610.75 63.375L610.25 65.25C609.667 65.8333 609.292 66.2917 609.125 66.625C609.042 66.9583 608.833 67.3333 608.5 67.75C608.25 68.8333 607.917 69.875 607.5 70.875C607.333 71.2917 607.167 71.75 607 72.25C606.833 72.6667 606.792 73 606.875 73.25C606.708 74.1667 606.458 74.875 606.125 75.375C606.125 75.875 606.083 76.375 606 76.875C605.917 77.375 605.833 77.875 605.75 78.375C605.583 78.9583 605.458 79.5 605.375 80C605.292 80.4167 605.333 80.8333 605.5 81.25C605.75 81.5833 606 81.9167 606.25 82.25C606.5 82.5833 606.708 83 606.875 83.5C607.042 83.6667 607.25 83.7917 607.5 83.875C607.75 83.9583 607.958 84.0833 608.125 84.25C608.792 84.8333 609.417 85.1667 610 85.25L611.25 86.75C611.75 89.75 611.292 92.0833 609.875 93.75C608.375 95.6667 605.875 96.625 602.375 96.625L600.625 96.5C600.042 95.9167 599.708 95.5417 599.625 95.375C598.875 95.0417 598.25 94.75 597.75 94.5C597.25 94.3333 596.792 93.9583 596.375 93.375C596.208 93.2083 596 93.125 595.75 93.125C595.5 93.0417 595.292 92.9167 595.125 92.75C594.292 92.5 593.625 92.2083 593.125 91.875L591.75 91.125C591.833 90.2917 591.875 89.7083 591.875 89.375C591.208 88.4583 590.667 87.4583 590.25 86.375C589.917 85.2917 589.625 84.1667 589.375 83C589.125 82.0833 588.875 81.25 588.625 80.5C588.458 79.75 588.167 79.0833 587.75 78.5C587.583 72.6667 588.125 67.7917 589.375 63.875C590.625 59.875 592 56 593.5 52.25C594.333 50.25 595.125 48.2083 595.875 46.125C596.625 44.0417 597.292 41.9167 597.875 39.75L599.25 38.375C599.833 37.875 600.208 37.5833 600.375 37.5C600.375 36.4167 600.583 35.375 601 34.375C601.417 33.2917 601.875 32.2083 602.375 31.125C602.708 30.4583 603 29.7917 603.25 29.125C603.583 28.4583 603.792 27.875 603.875 27.375C603.292 27.375 602.75 27.4167 602.25 27.5C601.833 27.5 601.375 27.5417 600.875 27.625C599.792 27.875 598.75 28 597.75 28C597 28 596.458 27.9583 596.125 27.875C595.458 28.2083 594.833 28.4167 594.25 28.5C593.667 28.5 593.083 28.5 592.5 28.5H591H589.5C588.5 28.5 587.708 28.625 587.125 28.875C585.958 28.875 585.208 28.875 584.875 28.875C584.542 28.875 584.167 28.875 583.75 28.875H582.25H580.75C580.083 28.875 579.333 28.8333 578.5 28.75C577.667 28.5833 576.792 28.25 575.875 27.75L575 26.75C574.5 25.8333 574.042 25.3333 573.625 25.25L572.25 24.875V23.5Z" fill="black"/>
</svg>
