<svg width="669" height="97" viewBox="0 0 669 97" fill="none" xmlns="http://www.w3.org/2000/svg">
<path d="M572 23.375C571.917 22.7083 571.75 22.125 571.5 21.625C571.333 21.0417 571.125 20.4167 570.875 19.75C570.458 18.75 570.083 17.6667 569.75 16.5C569.417 15.3333 569.25 13.9583 569.25 12.375C569.417 11.5417 569.625 10.9583 569.875 10.625C570.125 10.2083 570.375 9.875 570.625 9.625L571.125 7.375H573C573.667 7.45833 574.333 7.5 575 7.5C575.75 7.5 576.458 7.5 577.125 7.5C580.292 7.5 583.542 7.375 586.875 7.125C590.208 6.875 593.625 6.58333 597.125 6.25C600.958 5.75 605.083 5.375 609.5 5.125C609.917 4.20833 610.167 3.625 610.25 3.375C610.417 3.125 610.583 2.83333 610.75 2.5L612.125 1.75C614.042 1.66667 615.375 1.91667 616.125 2.5C616.875 3 617.458 3.5 617.875 4C620.042 3.83333 622.25 3.625 624.5 3.375C626.75 3.04167 629.083 2.70833 631.5 2.375C634.833 1.95833 638.208 1.54167 641.625 1.125C645.042 0.708333 648.375 0.5 651.625 0.5C653.042 0.5 654.375 0.541667 655.625 0.625C656.875 0.708333 658.083 0.833333 659.25 1L660.75 2.125C661.083 2.70833 661.5 3.25 662 3.75C662.5 4.25 663.083 4.75 663.75 5.25C665 6.25 666.208 7.5 667.375 9C668.625 10.5 669.083 12.7083 668.75 15.625L668.125 16.875C667.792 17.2083 667.375 17.5417 666.875 17.875L665.625 19.5H664.25C663.417 19.5 662.792 19.5833 662.375 19.75C661.958 19.8333 661.458 20 660.875 20.25C660.542 20.4167 660.167 20.5833 659.75 20.75C659.333 20.8333 658.875 20.9583 658.375 21.125C657.458 21.0417 656.75 21 656.25 21C655.75 21 655.167 21 654.5 21C652 21 649.292 21.1667 646.375 21.5C643.458 21.8333 640.625 22.2083 637.875 22.625C635.875 22.875 633.958 23.125 632.125 23.375C630.292 23.5417 628.625 23.7083 627.125 23.875C626.292 26.0417 625.542 27.9583 624.875 29.625C624.208 31.2917 623.5 32.9583 622.75 34.625C622 36.2917 621.292 38 620.625 39.75C619.958 41.4167 619.333 43.2917 618.75 45.375C617.75 46.875 616.917 48.3333 616.25 49.75C615.583 51.0833 615.042 52.625 614.625 54.375C613.375 55.7917 612.458 57.3333 611.875 59C611.375 60.6667 610.917 62.0833 610.5 63.25L610 65.125C609.417 65.7083 609.042 66.1667 608.875 66.5C608.792 66.8333 608.583 67.2083 608.25 67.625C608 68.7083 607.667 69.75 607.25 70.75C607.083 71.1667 606.917 71.625 606.75 72.125C606.583 72.5417 606.542 72.875 606.625 73.125C606.458 74.0417 606.208 74.75 605.875 75.25C605.875 75.75 605.833 76.25 605.75 76.75C605.667 77.25 605.583 77.75 605.5 78.25C605.333 78.8333 605.208 79.375 605.125 79.875C605.042 80.2917 605.083 80.7083 605.25 81.125C605.5 81.4583 605.75 81.7917 606 82.125C606.25 82.4583 606.458 82.875 606.625 83.375C606.792 83.5417 607 83.6667 607.25 83.75C607.5 83.8333 607.708 83.9583 607.875 84.125C608.542 84.7083 609.167 85.0417 609.75 85.125L611 86.625C611.5 89.625 611.042 91.9583 609.625 93.625C608.125 95.5417 605.625 96.5 602.125 96.5L600.375 96.375C599.792 95.7917 599.458 95.4167 599.375 95.25C598.625 94.9167 598 94.625 597.5 94.375C597 94.2083 596.542 93.8333 596.125 93.25C595.958 93.0833 595.75 93 595.5 93C595.25 92.9167 595.042 92.7917 594.875 92.625C594.042 92.375 593.375 92.0833 592.875 91.75L591.5 91C591.583 90.1667 591.625 89.5833 591.625 89.25C590.958 88.3333 590.417 87.3333 590 86.25C589.667 85.1667 589.375 84.0417 589.125 82.875C588.875 81.9583 588.625 81.125 588.375 80.375C588.208 79.625 587.917 78.9583 587.5 78.375C587.333 72.5417 587.875 67.6667 589.125 63.75C590.375 59.75 591.75 55.875 593.25 52.125C594.083 50.125 594.875 48.0833 595.625 46C596.375 43.9167 597.042 41.7917 597.625 39.625L599 38.25C599.583 37.75 599.958 37.4583 600.125 37.375C600.125 36.2917 600.333 35.25 600.75 34.25C601.167 33.1667 601.625 32.0833 602.125 31C602.458 30.3333 602.75 29.6667 603 29C603.333 28.3333 603.542 27.75 603.625 27.25C603.042 27.25 602.5 27.2917 602 27.375C601.583 27.375 601.125 27.4167 600.625 27.5C599.542 27.75 598.5 27.875 597.5 27.875C596.75 27.875 596.208 27.8333 595.875 27.75C595.208 28.0833 594.583 28.2917 594 28.375C593.417 28.375 592.833 28.375 592.25 28.375H590.75H589.25C588.25 28.375 587.458 28.5 586.875 28.75C585.708 28.75 584.958 28.75 584.625 28.75C584.292 28.75 583.917 28.75 583.5 28.75H582H580.5C579.833 28.75 579.083 28.7083 578.25 28.625C577.417 28.4583 576.542 28.125 575.625 27.625L574.75 26.625C574.25 25.7083 573.792 25.2083 573.375 25.125L572 24.75V23.375Z" fill="#F5F5F5"/>
<path d="M505.375 95.375C504.208 94.625 503.292 93.6667 502.625 92.5C501.875 91.3333 501.292 90.0833 500.875 88.75C500.375 87.4167 500 86.0417 499.75 84.625C499.417 83.125 499.083 81.7083 498.75 80.375C498.75 79.2083 499 78.375 499.5 77.875C500 77.2917 500.542 76.75 501.125 76.25C503.125 76.1667 504.917 76 506.5 75.75C508.083 75.5 509.625 75.25 511.125 75C512.625 74.75 514.125 74.5417 515.625 74.375C517.125 74.125 518.75 74 520.5 74C521.75 71.4167 522.917 68.9583 524 66.625C525.083 64.2083 526.125 61.9167 527.125 59.75C527.625 57.6667 528.25 55.75 529 54C529.833 52.1667 530.625 50.4583 531.375 48.875C532.125 47.2083 532.792 45.5833 533.375 44C533.958 42.3333 534.333 40.5833 534.5 38.75C535.5 35.8333 536.375 33.1667 537.125 30.75C537.958 28.25 538.583 25.2917 539 21.875C535.833 22.375 533.292 22.875 531.375 23.375C529.458 23.7917 528.083 24.2083 527.25 24.625C525.583 24.5417 524.25 24.2083 523.25 23.625C522.333 23.0417 521.583 22.3333 521 21.5C520.417 20.6667 519.917 19.7083 519.5 18.625C519.083 17.5417 518.583 16.4167 518 15.25C518.333 14.5 518.417 13.4167 518.25 12C518.083 10.5 517.583 9.41667 516.75 8.75C517.417 8.58333 517.917 8.04167 518.25 7.125C518.583 6.125 518.625 5.375 518.375 4.875C519.792 4.45833 521.292 4.20833 522.875 4.125C524.458 3.95833 526 3.83333 527.5 3.75C529.083 3.58333 530.583 3.41667 532 3.25C533.417 3 534.625 2.54167 535.625 1.875C539.958 1.70833 544.458 1.54167 549.125 1.375C553.875 1.20833 558.25 1 562.25 0.75C563.75 1.25 565.458 1.5 567.375 1.5C569.375 1.5 571.333 1.625 573.25 1.875C575.25 2.125 577 2.66667 578.5 3.5C580.083 4.33333 581.167 5.79167 581.75 7.875C583 8.04167 583.917 8.375 584.5 8.875C585.167 9.375 585.583 10 585.75 10.75C585.917 11.4167 585.958 12.2083 585.875 13.125C585.875 13.9583 585.875 14.7917 585.875 15.625C584.542 16.625 582.833 17.4583 580.75 18.125C578.75 18.7083 576.542 19.2083 574.125 19.625C571.708 19.9583 569.167 20.2083 566.5 20.375C563.917 20.4583 561.375 20.5417 558.875 20.625C558.458 23.375 557.708 26.625 556.625 30.375C555.625 34.0417 554.583 37.6667 553.5 41.25C552.417 44.75 551.458 47.9167 550.625 50.75C549.875 53.5 549.542 55.2917 549.625 56.125C548.792 58.0417 548.083 59.6667 547.5 61C547 62.3333 546.5 63.5833 546 64.75C545.583 65.9167 545.125 67.0833 544.625 68.25C544.208 69.3333 543.667 70.5833 543 72H551.5C551.667 72.9167 552.042 73.5417 552.625 73.875C553.208 74.2083 553.833 74.5 554.5 74.75C555.167 75 555.75 75.3333 556.25 75.75C556.833 76.0833 557.125 76.6667 557.125 77.5C558.708 77.9167 559.708 78.5417 560.125 79.375C560.542 80.2083 560.625 81.125 560.375 82.125C560.208 83.0417 559.792 84 559.125 85C558.542 86 557.958 86.875 557.375 87.625C556.625 87.4583 555.917 87.6667 555.25 88.25C554.583 88.75 553.958 89.3333 553.375 90C550.958 89.6667 548.583 89.625 546.25 89.875C543.917 90.125 541.75 90.3333 539.75 90.5C539.333 90.5833 539.167 90.8333 539.25 91.25C539.333 91.5833 539.25 91.8333 539 92C536.417 91.1667 533.75 90.8333 531 91C528.333 91.1667 525.583 91.5833 522.75 92.25C520 92.8333 517.167 93.4583 514.25 94.125C511.333 94.875 508.375 95.2917 505.375 95.375Z" fill="#F5F5F5"/>
<path d="M435.125 68.5C432.625 67.0833 430.708 65.0833 429.375 62.5C428.042 59.9167 427.292 57.4583 427.125 55.125C427.375 53.125 427.917 51.5833 428.75 50.5C429.5 49.3333 430.417 48.4167 431.5 47.75C432.583 47 433.708 46.4583 434.875 46.125C436.042 45.7083 437.167 45.375 438.25 45.125L440.125 45.75C440.542 46.1667 440.958 46.5417 441.375 46.875C441.875 47.2083 442.333 47.5417 442.75 47.875C443.583 47.5417 444.083 47.0417 444.25 46.375C444.5 45.7083 444.75 45.0417 445 44.375C445.25 43.4583 445.542 42.5417 445.875 41.625C446.208 40.7083 446.625 39.7917 447.125 38.875C447.042 38.125 447.083 37.4583 447.25 36.875C447.417 36.2917 447.583 35.7917 447.75 35.375C447.25 34.9583 446.875 34.75 446.625 34.75C446.458 34.6667 446.125 34.5417 445.625 34.375C445.375 34.375 445.125 34.375 444.875 34.375C444.625 34.2917 444.333 34.2083 444 34.125C442.75 33.2083 441.917 32.4583 441.5 31.875C441.167 31.2083 440.792 30.5417 440.375 29.875C439.958 29.2083 439.583 28.625 439.25 28.125C438.917 27.625 438.542 27.1667 438.125 26.75L436.625 25.75L437.375 24.25C437.542 24.0833 437.625 23.875 437.625 23.625C437.625 23.2917 437.458 22.8333 437.125 22.25C436.875 21.1667 436.833 20.375 437 19.875L437.25 18.375C438.083 17.2917 438.542 16.6667 438.625 16.5L439.875 15.25C441.792 14.75 443.75 14.2083 445.75 13.625C447.75 12.9583 449.708 12.2917 451.625 11.625C453.542 10.9583 455.5 10.2917 457.5 9.625C459.5 8.95833 461.5 8.375 463.5 7.875C464.167 7.29167 464.875 6.95833 465.625 6.875C466.458 6.70833 467.208 6.58333 467.875 6.5C468.458 6.5 469 6.45833 469.5 6.375C470 6.29167 470.375 6.08333 470.625 5.75C472.042 5.25 473.417 4.83333 474.75 4.5C477.25 3.83333 480.542 3.04167 484.625 2.125C488.708 1.20833 493.292 0.541667 498.375 0.125L501 0C501.5 0.0833333 502 0.125 502.5 0.125C503 0.0416667 503.5 0 504 0C508.333 0 511.208 1.33333 512.625 4C513.458 4.41667 514.208 4.95833 514.875 5.625C515.542 6.20833 516.167 6.79167 516.75 7.375C517.167 7.79167 517.542 8.16667 517.875 8.5C518.208 8.75 518.5 8.95833 518.75 9.125L519.75 10.125C520.667 12.125 520.833 14.0833 520.25 16C519.75 17 519.208 17.5833 518.625 17.75C518.042 17.9167 517.458 18.0833 516.875 18.25L515.25 19.125C514.167 19.0417 513.333 19 512.75 19C512.25 19 511.667 19 511 19C508.5 19 505.583 19.1667 502.25 19.5C499 19.75 495.667 20.1667 492.25 20.75C488.833 21.25 485.5 21.9167 482.25 22.75C479 23.5 476.167 24.3333 473.75 25.25C473.083 25.75 472.208 26.2083 471.125 26.625C470.875 26.7083 470.5 26.9167 470 27.25C470.083 27.9167 470.083 28.5833 470 29.25C469.917 29.8333 469.792 30.4167 469.625 31C469.542 31.4167 469.458 31.875 469.375 32.375C469.375 32.7917 469.333 33.25 469.25 33.75C467.5 35.8333 466.667 38.2917 466.75 41.125L466.125 42.375C465.792 42.7083 465.5 43.2083 465.25 43.875C465.083 44.4583 465.083 45.0833 465.25 45.75L465.75 47.25C467.417 47.0833 469.042 46.9167 470.625 46.75C472.292 46.5 474.042 46.25 475.875 46C478.208 45.5833 480.542 45.25 482.875 45C485.292 44.6667 487.792 44.5 490.375 44.5H495.25L494.125 45.625L495.5 45.75L494.75 47.75C495.333 48 495.75 48.2083 496 48.375C496.333 48.4583 496.625 48.5833 496.875 48.75L497.75 50C498.167 50.25 498.542 50.6667 498.875 51.25C499.208 51.75 499.417 52.4583 499.5 53.375L499.125 54.625L493.25 62.125L492.5 63.125L491.25 62.75C489.667 62.6667 488.167 62.8333 486.75 63.25C486.083 63.4167 485.375 63.625 484.625 63.875C483.875 64.0417 483.125 64.125 482.375 64.125C480.375 64.4583 478.708 64.75 477.375 65C476.042 65.1667 474.708 65.3333 473.375 65.5C471.542 65.8333 469.75 66.1667 468 66.5C466.333 66.75 464.75 67.1667 463.25 67.75C462.333 67.8333 461.792 67.875 461.625 67.875C461.458 67.7917 461.292 67.75 461.125 67.75C460.292 67.75 459.458 67.875 458.625 68.125C457.792 68.375 457 68.625 456.25 68.875C455.75 69.2917 455.417 69.75 455.25 70.25C455.083 70.6667 454.917 71.125 454.75 71.625C454.583 72.2083 454.333 72.7917 454 73.375C453.75 73.875 453.417 74.4167 453 75L453.125 77.25C452.375 77.4167 452 77.5417 452 77.625C452 77.625 451.958 77.625 451.875 77.625C451.875 78.2917 451.75 78.9167 451.5 79.5C451.333 80.0833 451.167 80.625 451 81.125C450.833 81.4583 450.708 81.75 450.625 82C450.542 82.25 450.5 82.5 450.5 82.75C451.333 84.25 451.542 85.9583 451.125 87.875C450.792 89.4583 450.167 90.875 449.25 92.125C448.333 93.2917 447.25 94.2083 446 94.875C444.667 95.0417 443.667 95 443 94.75C442.417 94.5 441.792 94.25 441.125 94C440.708 93.8333 440.292 93.7083 439.875 93.625C439.458 93.4583 439.042 93.3333 438.625 93.25L437.125 92C436.875 91.5 436.583 91.0417 436.25 90.625C435.917 90.125 435.583 89.625 435.25 89.125C434.833 88.5417 434.417 87.9583 434 87.375C433.583 86.7917 433.208 86.125 432.875 85.375C432.292 82.4583 432.167 80.0417 432.5 78.125C432.917 76.125 433.458 74.1667 434.125 72.25C434.292 71.5833 434.458 70.9583 434.625 70.375C434.792 69.7917 434.958 69.1667 435.125 68.5Z" fill="#F5F5F5"/>
<path d="M332.75 71C332.833 70.6667 332.875 70.4167 332.875 70.25C332.958 70.0833 332.833 69.875 332.5 69.625C332.333 69.0417 332.458 68.6667 332.875 68.5C333.292 68.3333 333.708 68.1667 334.125 68C334.542 63 335.375 58.4583 336.625 54.375C337.958 50.2083 339.375 46.1667 340.875 42.25C342.458 38.3333 344 34.4167 345.5 30.5C347.083 26.5 348.375 22.1667 349.375 17.5C350.458 16.4167 351.333 15.125 352 13.625C352.75 12.125 353.458 10.625 354.125 9.125C354.875 7.54167 355.708 6.04167 356.625 4.625C357.625 3.20833 358.958 2.04167 360.625 1.125C361.375 1.20833 362.042 1.375 362.625 1.625C363.292 1.79167 363.917 2 364.5 2.25C365.083 2.5 365.708 2.70833 366.375 2.875C367.042 3.04167 367.75 3.125 368.5 3.125C368.833 3.54167 369.125 4.04167 369.375 4.625C369.625 5.125 369.958 5.58333 370.375 6L372.625 5.625C373.708 6.54167 374.667 7.70833 375.5 9.125C376.333 10.4583 376.917 11.875 377.25 13.375C377.583 14.7917 377.542 16.2083 377.125 17.625C376.708 18.9583 375.75 20 374.25 20.75C374.333 21.25 374.333 21.625 374.25 21.875C374.167 22.125 374.042 22.375 373.875 22.625C373.792 22.7917 373.75 23 373.75 23.25C373.75 23.4167 373.917 23.6667 374.25 24C373.333 24.75 372.5 25.7083 371.75 26.875C371 27.9583 370.375 29.125 369.875 30.375C369.375 31.625 368.958 32.875 368.625 34.125C368.375 35.375 368.208 36.5417 368.125 37.625C370.542 35.125 373.375 32.7917 376.625 30.625C379.875 28.4583 382.708 26.4167 385.125 24.5C387.042 23.1667 388.708 21.9167 390.125 20.75C391.625 19.5 393.125 18.375 394.625 17.375C396.125 16.2917 397.667 15.2917 399.25 14.375C400.917 13.375 402.583 12.2917 404.25 11.125C405.083 10.7917 405.708 10.7083 406.125 10.875C406.625 11.0417 407.083 11.25 407.5 11.5C407.583 10.9167 407.458 10.5833 407.125 10.5C406.792 10.3333 406.667 9.91667 406.75 9.25C408.167 8.83333 409.417 8.33333 410.5 7.75C411.667 7.16667 412.875 6.625 414.125 6.125C414.958 7.04167 415.792 8.04167 416.625 9.125C417.458 10.125 418.583 10.6667 420 10.75C420.5 11.8333 421.083 12.6667 421.75 13.25C422.5 13.75 423.208 14.25 423.875 14.75C424.625 15.25 425.25 15.875 425.75 16.625C426.25 17.2917 426.542 18.375 426.625 19.875C426.292 20.5417 425.875 21.2917 425.375 22.125C424.958 22.875 424.583 23.8333 424.25 25C422.25 26.8333 420.208 28.4583 418.125 29.875C416.125 31.2083 414.042 32.5 411.875 33.75C409.792 35 407.625 36.2917 405.375 37.625C403.208 38.9583 401 40.5 398.75 42.25C398.25 43 397.625 43.6667 396.875 44.25C396.125 44.8333 395.333 45.4167 394.5 46C393.75 46.5 393 47.0417 392.25 47.625C391.583 48.2083 391.042 48.9167 390.625 49.75C390.292 49.75 390 49.7917 389.75 49.875C389.5 49.875 389.208 49.9167 388.875 50C388.542 50.6667 388.042 51.2083 387.375 51.625C386.792 52.0417 386.375 52.5833 386.125 53.25C387.625 56.5 389.583 58.9583 392 60.625C394.417 62.2917 397.125 63.5 400.125 64.25C403.125 65 406.375 65.4167 409.875 65.5C413.375 65.5833 417 65.625 420.75 65.625C421.167 65.5417 421.333 65.3333 421.25 65C421.25 64.5833 421.5 64.4167 422 64.5C423.25 64.9167 424.292 65.4167 425.125 66C425.958 66.5833 426.75 67.2083 427.5 67.875C428.25 68.5417 428.958 69.25 429.625 70C430.375 70.6667 431.208 71.375 432.125 72.125C431.958 76.0417 430.792 79.25 428.625 81.75C426.542 84.1667 423.75 86.125 420.25 87.625C415.417 87.7917 411.208 87.6667 407.625 87.25C404.042 86.8333 400.5 85.9167 397 84.5C396.75 84.4167 396.5 84.1667 396.25 83.75C396.083 83.3333 395.917 83.0417 395.75 82.875C395.083 82.4583 394.333 82.2917 393.5 82.375C392.667 82.4583 391.958 82.375 391.375 82.125C390.625 81.7917 389.375 81.0417 387.625 79.875C385.958 78.7083 384.417 77.625 383 76.625C381.25 75.2083 379.542 73.8333 377.875 72.5C376.292 71.0833 374.875 69.5417 373.625 67.875C373.375 67.4583 373 67.25 372.5 67.25C372.083 67.25 371.667 67.125 371.25 66.875C368.333 68.7083 365.875 71 363.875 73.75C361.958 76.4167 360.083 79.1667 358.25 82C356.417 84.75 354.458 87.375 352.375 89.875C350.375 92.2917 347.833 94.1667 344.75 95.5C343.833 95.5 343.042 95.3333 342.375 95C341.708 94.75 341.083 94.375 340.5 93.875C339.917 93.4583 339.333 93.0417 338.75 92.625C338.167 92.2083 337.5 91.9167 336.75 91.75C336.75 90.5833 336.5 89.5 336 88.5C335.583 87.4167 335.125 86.4583 334.625 85.625C334.208 84.7083 333.875 83.8333 333.625 83C333.458 82.1667 333.708 81.3333 334.375 80.5C333.458 79.75 332.583 79.125 331.75 78.625C332.333 78.0417 332.583 77.5 332.5 77C332.5 76.5 332.375 76 332.125 75.5C331.875 75 331.667 74.5 331.5 74C331.417 73.4167 331.583 72.7917 332 72.125C332.333 72.0417 332.458 71.875 332.375 71.625C332.375 71.375 332.5 71.1667 332.75 71Z" fill="#F5F5F5"/>
<path d="M237.125 82L238.75 80.75L238.875 78.125C240.958 73.0417 243.083 68.1667 245.25 63.5C247.5 58.8333 249.833 54.0417 252.25 49.125C253 47.5417 253.75 45.9583 254.5 44.375C255.333 42.7917 256.125 41.1667 256.875 39.5C256.792 39.1667 256.75 38.8333 256.75 38.5C256.75 38.0833 256.833 37.625 257 37.125C258.167 35.4583 259.083 33.9583 259.75 32.625C260.5 31.2917 261.208 29.9167 261.875 28.5C262.625 26.8333 263.417 25.1667 264.25 23.5C265.167 21.8333 266.292 20.2083 267.625 18.625L268.5 17.375L269.875 17.5C270.208 17.3333 270.542 17.2083 270.875 17.125C271.292 16.9583 271.792 16.875 272.375 16.875L274.625 17.25C277.375 16 279.792 14.2083 281.875 11.875C284.042 9.45833 286.208 6.58333 288.375 3.25L289.875 1.125L291.875 2.375C292.292 2.625 292.958 2.875 293.875 3.125C294.792 3.375 295.75 3.66667 296.75 4C298.5 4.41667 300.208 4.91667 301.875 5.5C303.542 6 304.833 6.70833 305.75 7.625L306.375 8.75C306.542 9.66667 306.667 10.5 306.75 11.25C306.917 12 307.083 12.75 307.25 13.5C307.583 15.25 307.875 17 308.125 18.75C308.375 20.4167 308.542 22.2917 308.625 24.375C309.042 26.0417 309.417 27.75 309.75 29.5C310.167 31.1667 310.542 32.8333 310.875 34.5C311.292 36.9167 311.75 39.25 312.25 41.5C312.75 43.6667 313.417 45.75 314.25 47.75C315.083 47.75 315.583 47.7917 315.75 47.875C316.75 47.4583 317.917 47.2083 319.25 47.125L320.875 47L321.375 48.5C321.542 48.75 321.75 49 322 49.25C322.25 49.5 322.542 49.75 322.875 50C324.208 50.0833 325.167 50.375 325.75 50.875C326.417 51.2917 326.958 51.7083 327.375 52.125C327.542 52.2917 327.75 52.5 328 52.75C328.25 52.9167 328.458 53.0417 328.625 53.125L330.875 54L329.625 56.375C328.708 58.125 327.292 59.8333 325.375 61.5C323.542 63.1667 321.458 64.5417 319.125 65.625C319.292 66.2083 319.375 66.75 319.375 67.25C319.458 67.75 319.583 68.3333 319.75 69C320.083 70.6667 320.333 72.4167 320.5 74.25C320.75 76 320.75 77.8333 320.5 79.75C319.667 81.9167 318.667 83.875 317.5 85.625C316.417 87.2917 315.083 88.8333 313.5 90.25C312 91.5833 310.292 92.7083 308.375 93.625C306.458 94.4583 304.458 94.9167 302.375 95C301.208 94.75 300.333 94.4583 299.75 94.125C299.25 93.7917 298.792 93.4583 298.375 93.125C297.708 92.625 297.167 92.2917 296.75 92.125L295.125 91.375L295.625 89.5C295.875 88.8333 295.833 88.25 295.5 87.75C295.25 87.25 294.667 86.5833 293.75 85.75C293.417 85.5 293.125 85.25 292.875 85C292.625 84.6667 292.333 84.3333 292 84L289.5 81.125L293.625 80C296.125 79.3333 297.792 78.5 298.625 77.5C299.458 76.4167 299.792 74.5417 299.625 71.875C297.542 71.4583 295.833 71.4167 294.5 71.75C293.167 72 291.833 72.2917 290.5 72.625C288.583 73.125 286.708 73.5833 284.875 74C283.042 74.3333 281.042 74.5 278.875 74.5C277.458 74.5 275.958 74.375 274.375 74.125L273 74L272.625 72.625C272.625 72.4583 272.5 72.2917 272.25 72.125C272.083 71.875 271.917 71.6667 271.75 71.5C271.333 71 270.833 70.3333 270.25 69.5C269.667 68.6667 269.542 67.625 269.875 66.375C269.292 65.4583 268.958 64.5 268.875 63.5C268.542 64.1667 268.25 64.8333 268 65.5C267.833 66.0833 267.667 66.6667 267.5 67.25L267 68.875L265.375 69.125C265.208 69.2917 265.042 69.5417 264.875 69.875C264.792 70.2083 264.792 70.4583 264.875 70.625L265.375 72L264.125 73.125C263.958 73.375 263.75 73.5833 263.5 73.75C263.25 73.9167 263.042 74.0833 262.875 74.25C262.708 75.1667 262.458 76.0417 262.125 76.875C261.875 77.7083 261.583 78.5417 261.25 79.375C260.833 80.7083 260.417 82 260 83.25C259.667 84.5 259.5 85.75 259.5 87L259 88.625C258.583 89.2917 258.042 89.7917 257.375 90.125C256.792 90.4583 256.208 90.75 255.625 91C254.792 91.3333 254.208 91.6667 253.875 92L253.5 93.625L251.625 93.875C250.542 94.125 249.75 94.2917 249.25 94.375C248.833 94.4583 248.333 94.5 247.75 94.5L246.125 94.375C245.125 93.375 244.292 92.625 243.625 92.125C243.042 91.5417 242.333 91.0417 241.5 90.625L240.75 89.625C240.417 88.9583 240.208 88.375 240.125 87.875C240.042 87.2917 239.917 86.7083 239.75 86.125C239.583 85.0417 239.333 84.2917 239 83.875L237.125 82ZM277 49.5C275.833 51.1667 274.708 52.9167 273.625 54.75C274.208 54.6667 274.75 54.625 275.25 54.625C275.833 54.625 276.417 54.5833 277 54.5C279.917 54.3333 282.625 54.125 285.125 53.875C287.625 53.625 290.333 53.2083 293.25 52.625C292.583 49.5417 291.833 46.4167 291 43.25C290.25 40 289.417 36.75 288.5 33.5L287.875 34.75C285.792 37 283.792 39.4167 281.875 42C279.958 44.5833 278.375 47.0417 277.125 49.375L277 49.5Z" fill="#F5F5F5"/>
<path d="M167.125 89.625C166.458 88.9583 165.958 88.1667 165.625 87.25C165.375 86.3333 164.708 85.5833 163.625 85C163.458 83.75 163.208 82.3333 162.875 80.75C162.625 79.0833 162.333 77.4167 162 75.75C161.75 74 161.542 72.2917 161.375 70.625C161.292 68.875 161.375 67.2917 161.625 65.875C161.792 65.125 162.042 64.4167 162.375 63.75C162.792 63.0833 163.167 62.4583 163.5 61.875C163.917 61.2083 164.208 60.5417 164.375 59.875C164.625 59.2083 164.667 58.5417 164.5 57.875C165 57.7917 165.292 57.5417 165.375 57.125C165.542 56.625 165.958 56.4583 166.625 56.625C167.208 54.7917 167.833 53.0833 168.5 51.5C169.167 49.9167 169.875 48.375 170.625 46.875C171.375 45.375 172.125 43.875 172.875 42.375C173.708 40.7917 174.458 39.0417 175.125 37.125C173.708 35.7917 172.667 34.375 172 32.875C171.417 31.2917 170.958 29.7083 170.625 28.125C170.292 26.5417 170.042 24.9583 169.875 23.375C169.708 21.7083 169.375 20.0417 168.875 18.375C169.875 16.875 171.083 15.6667 172.5 14.75C173.917 13.75 175.458 12.9583 177.125 12.375C178.875 11.7083 180.75 11.2083 182.75 10.875C184.75 10.4583 186.875 10 189.125 9.5C193.125 8.25 196.708 7.29167 199.875 6.625C203.042 5.875 206.125 5.29167 209.125 4.875C212.125 4.375 215.25 3.95833 218.5 3.625C221.75 3.20833 225.5 2.625 229.75 1.875C229.833 2.125 229.958 2.25 230.125 2.25C230.375 2.25 230.667 2.25 231 2.25C231.25 2.83333 231.708 3.125 232.375 3.125C232.375 2.875 232.333 2.66667 232.25 2.5C232.25 2.25 232.25 2.04167 232.25 1.875C232.417 1.875 232.625 1.91667 232.875 2C233.208 2.08333 233.458 2.16667 233.625 2.25C233.875 2.33333 234.083 2.33333 234.25 2.25C234.417 2.08333 234.458 1.79167 234.375 1.375C235.375 3.125 236.667 4.58333 238.25 5.75C239.833 6.83333 241.583 7.79167 243.5 8.625C243.583 9.375 243.583 9.91667 243.5 10.25C243.5 10.5833 243.458 10.9167 243.375 11.25C243.292 11.5 243.25 11.8333 243.25 12.25C243.25 12.5833 243.333 13.0833 243.5 13.75C242.167 16 240.625 17.75 238.875 19C237.208 20.25 235.417 21.2083 233.5 21.875C231.583 22.5417 229.542 23.0417 227.375 23.375C225.292 23.7083 223.125 24.0833 220.875 24.5C218.708 24.8333 216.5 25.3333 214.25 26C212 26.6667 209.792 27.6667 207.625 29C206.958 28.75 206.333 28.6667 205.75 28.75C205.25 28.75 204.708 28.8333 204.125 29C203.542 29.1667 202.875 29.3333 202.125 29.5C201.458 29.6667 200.625 29.6667 199.625 29.5C198.958 30.0833 198.167 30.5 197.25 30.75C196.417 31 195.542 31.25 194.625 31.5C195.042 32.4167 195.208 33.3333 195.125 34.25C195.125 35.1667 195.25 35.9583 195.5 36.625C199 36.9583 202.875 36.9583 207.125 36.625C211.375 36.2083 215.542 35.9167 219.625 35.75C219.708 36.1667 219.667 36.4583 219.5 36.625C219.333 36.7917 219.25 37.0833 219.25 37.5C220 38 220.708 38.625 221.375 39.375C222.042 40.125 222.708 40.875 223.375 41.625C224.125 42.2917 224.875 42.875 225.625 43.375C226.375 43.7917 227.25 43.9583 228.25 43.875C228.667 44.7083 228.958 45.5833 229.125 46.5C229.292 47.4167 229.167 48.375 228.75 49.375C227.083 50.4583 225.458 51.5833 223.875 52.75C222.292 53.8333 220.625 54.8333 218.875 55.75C217.208 56.6667 215.375 57.4167 213.375 58C211.375 58.5833 209.208 58.8333 206.875 58.75C206.458 58.75 206.083 58.75 205.75 58.75C205.5 58.75 205.167 58.5833 204.75 58.25C203.917 58.6667 202.792 58.8333 201.375 58.75C200.042 58.5833 198.917 58.7083 198 59.125C196.833 58.7083 195.458 58.5 193.875 58.5C192.375 58.5 191.042 58.2917 189.875 57.875C188.375 60.0417 186.958 62.3333 185.625 64.75C184.292 67.0833 183.125 69.5833 182.125 72.25C185.542 72.75 188.375 72.9583 190.625 72.875C192.875 72.7917 195 72.625 197 72.375C199 72.125 201.042 71.875 203.125 71.625C205.292 71.375 207.917 71.2917 211 71.375C213.083 70.375 215.458 69.7083 218.125 69.375C220.875 68.9583 223.417 68.375 225.75 67.625C226.583 67.875 227.292 68.375 227.875 69.125C228.458 69.7917 229 70.5 229.5 71.25C230.083 71.9167 230.667 72.5 231.25 73C231.833 73.5 232.583 73.6667 233.5 73.5C233.917 73.9167 234.167 74.4167 234.25 75C234.417 75.5833 234.542 76.125 234.625 76.625C234.792 77.125 235 77.5417 235.25 77.875C235.5 78.125 235.958 78.2083 236.625 78.125C235.042 81.375 233.25 83.875 231.25 85.625C229.333 87.375 227.125 88.75 224.625 89.75C222.208 90.6667 219.458 91.375 216.375 91.875C213.375 92.2917 210 92.8333 206.25 93.5C205.333 93.6667 204.542 93.6667 203.875 93.5C203.292 93.25 202.667 93.125 202 93.125C199.667 93.5417 196.875 93.9583 193.625 94.375C190.458 94.7917 187.25 94.9583 184 94.875C180.75 94.7917 177.625 94.375 174.625 93.625C171.625 92.875 169.125 91.5417 167.125 89.625Z" fill="#F5F5F5"/>
<path d="M95.125 82.125C94.2917 82.7917 93.7917 83.6667 93.625 84.75C93.4583 85.75 93.25 86.75 93 87.75C92.75 88.75 92.2917 89.625 91.625 90.375C91.0417 91.0417 89.9583 91.3333 88.375 91.25C88.0417 91.6667 87.9583 91.9167 88.125 92C88.375 92.0833 88.5833 92.4583 88.75 93.125C87.5833 92.9583 86.75 93.0417 86.25 93.375C85.75 93.7083 85.125 93.9583 84.375 94.125C82.4583 93.5417 80.8333 92.5 79.5 91C78.25 89.4167 77.125 87.7083 76.125 85.875C75.2083 84.0417 74.375 82.1667 73.625 80.25C72.9583 78.3333 72.25 76.6667 71.5 75.25C71.5 74.9167 71.6667 74.7917 72 74.875C72.25 74.875 72.5 74.875 72.75 74.875C72.3333 74.0417 72.0417 73.125 71.875 72.125C71.625 71.0417 71.2083 70.1667 70.625 69.5C73.0417 64.3333 75.625 58.9583 78.375 53.375C81.125 47.7083 83.875 42 86.625 36.25C89.4583 30.4167 92.25 24.5833 95 18.75C97.8333 12.8333 100.542 7.04167 103.125 1.375C105.458 2.20833 107.708 3.20833 109.875 4.375C112.125 5.45833 114.167 6.75 116 8.25C117.833 9.75 119.375 11.5 120.625 13.5C121.958 15.4167 122.833 17.625 123.25 20.125C123.083 20.625 122.875 20.7917 122.625 20.625C122.375 20.4583 122.167 20.5417 122 20.875C122.417 21.375 122.625 21.75 122.625 22C122.708 22.1667 122.708 22.375 122.625 22.625C122.542 22.7917 122.5 23.0417 122.5 23.375C122.5 23.7083 122.708 24.1667 123.125 24.75C122.708 24.6667 122.417 24.75 122.25 25C122.083 25.1667 121.792 25.1667 121.375 25C121.792 26.1667 121.917 27.0833 121.75 27.75C121.583 28.4167 121.333 29.0417 121 29.625C120.667 30.125 120.375 30.7083 120.125 31.375C119.958 31.9583 120.042 32.7917 120.375 33.875C120.042 33.875 119.792 33.9583 119.625 34.125C119.542 34.2083 119.458 34.3333 119.375 34.5C119.292 34.6667 119.167 34.8333 119 35C118.917 35.0833 118.708 35.0833 118.375 35C118.625 37.1667 118.708 39.375 118.625 41.625C118.542 43.7917 118.458 46.0417 118.375 48.375C118.292 50.625 118.292 52.9583 118.375 55.375C118.458 57.7917 118.792 60.2917 119.375 62.875C122.958 60.7917 125.833 58.0833 128 54.75C130.25 51.4167 132 47.7083 133.25 43.625C134.583 39.5417 135.583 35.1667 136.25 30.5C137 25.8333 137.75 21.0833 138.5 16.25C139.417 15.3333 140.125 14.2083 140.625 12.875C141.208 11.5417 141.667 10.1667 142 8.75C142.417 7.33333 142.792 5.91667 143.125 4.5C143.542 3 144.083 1.66667 144.75 0.5C146.25 0.666667 147.5 1.125 148.5 1.875C149.583 2.54167 150.583 3.33333 151.5 4.25C152.417 5.08333 153.375 5.875 154.375 6.625C155.375 7.375 156.625 7.875 158.125 8.125C159.292 9.79167 160.375 11.4167 161.375 13C162.375 14.5 163.042 16.2083 163.375 18.125C162.875 18.9583 162.5 19.875 162.25 20.875C162 21.875 161.708 22.875 161.375 23.875C161.125 24.875 160.75 25.7917 160.25 26.625C159.75 27.4583 159.042 28.1667 158.125 28.75C157.875 31.25 157.5 33.5833 157 35.75C156.5 37.9167 156.042 40.0417 155.625 42.125C155.208 44.2083 154.833 46.375 154.5 48.625C154.167 50.875 154.042 53.3333 154.125 56C153.375 58.4167 152.542 60.9167 151.625 63.5C150.708 66 150.042 68.3333 149.625 70.5C148.042 71.75 146.792 73.2917 145.875 75.125C144.958 76.9583 144 78.7917 143 80.625C142.583 80.9583 142.333 81.0417 142.25 80.875C142.167 80.625 141.792 80.4583 141.125 80.375C141.208 81.125 141.042 81.625 140.625 81.875C140.292 82.0417 140.333 82.625 140.75 83.625C139.333 84.2917 138.083 85.1667 137 86.25C135.917 87.3333 134.708 88.3333 133.375 89.25C132.125 90.1667 130.625 90.7917 128.875 91.125C127.208 91.375 125 91 122.25 90C118.167 87 114.5 83.5417 111.25 79.625C108 75.7083 105.417 71.0833 103.5 65.75C102.667 66 102.042 66.5417 101.625 67.375C101.208 68.2083 100.833 69.0833 100.5 70C100.167 70.9167 99.8333 71.75 99.5 72.5C99.1667 73.25 98.6667 73.625 98 73.625C97.8333 74.375 97.5 75.0833 97 75.75C96.5833 76.3333 96.1667 76.9583 95.75 77.625C95.3333 78.2083 95 78.875 94.75 79.625C94.5833 80.375 94.7083 81.2083 95.125 82.125Z" fill="#F5F5F5"/>
<path d="M0.375 37.5C0.625 36.25 0.791667 35.25 0.875 34.5C0.958333 33.6666 0.666667 32.7916 0 31.875C0.333333 30.5416 0.583333 29.5 0.75 28.75C1 28 1.04167 26.9583 0.875 25.625C1.625 23.4583 2.75 21.625 4.25 20.125C5.83333 18.625 7.54167 17.375 9.375 16.375C11.2083 15.2916 13.125 14.4166 15.125 13.75C17.125 13 19 12.375 20.75 11.875C20.75 11.5416 20.5833 11.375 20.25 11.375C19.9167 11.375 19.8333 11.1666 20 10.75C24.5 9.91665 29 8.70831 33.5 7.12498C38.0833 5.54165 42.75 4.12498 47.5 2.87498C52.25 1.62498 57.125 0.874981 62.125 0.624981C67.125 0.291648 72.375 0.916648 77.875 2.49998C78.2083 3.49998 78.6667 4.45831 79.25 5.37498C79.8333 6.29165 80.4167 7.20831 81 8.12498C81.6667 8.95831 82.25 9.79165 82.75 10.625C83.25 11.4583 83.5417 12.3333 83.625 13.25C84.625 14.1666 85.4167 15.1666 86 16.25C86.6667 17.25 86.7917 18.625 86.375 20.375C85.4583 21.0416 84.5 21.7083 83.5 22.375C82.5 23.0416 81.4583 23.6666 80.375 24.25C76.625 23.3333 72.875 23 69.125 23.25C65.375 23.5 62 23.7916 59 24.125C58.0833 23.125 57 22.6666 55.75 22.75C54.5 22.75 53.1667 22.9583 51.75 23.375C50.4167 23.7083 49.0833 24.0833 47.75 24.5C46.4167 24.8333 45.1667 24.9166 44 24.75C43.0833 25.5833 41.875 26.1666 40.375 26.5C38.875 26.75 37.2917 26.9583 35.625 27.125C35.5417 27.5416 35.625 27.8333 35.875 28C36.125 28.1666 36.1667 28.5 36 29C36.5833 29.75 37.375 30.2916 38.375 30.625C39.375 30.875 40.375 31.125 41.375 31.375C42.4583 31.625 43.4167 32 44.25 32.5C45.0833 32.9166 45.625 33.625 45.875 34.625C47.375 34.7083 48.6667 35.125 49.75 35.875C50.8333 36.5416 51.75 37.375 52.5 38.375C53.25 39.375 53.7917 40.4583 54.125 41.625C54.4583 42.7083 54.5833 43.7083 54.5 44.625C54.8333 45.4583 55.1667 45.7916 55.5 45.625C55.9167 45.4583 56.375 45.6666 56.875 46.25C57.2083 47.5 57.9583 48.8333 59.125 50.25C60.375 51.5833 61.3333 53.0416 62 54.625C62.1667 57.125 62.2917 59.375 62.375 61.375C62.5417 63.375 62.2083 65.3333 61.375 67.25C59.9583 70.9167 57.9167 74.2083 55.25 77.125C52.5833 80.0417 49.5417 82.625 46.125 84.875C42.7917 87.0417 39.25 88.9583 35.5 90.625C31.75 92.2083 28.0417 93.5417 24.375 94.625C24.0417 94.5417 23.625 94.5417 23.125 94.625C22.7083 94.7083 22.625 94.4583 22.875 93.875C22.125 94.5417 21.25 94.9583 20.25 95.125C19.3333 95.2917 18.2917 95.3333 17.125 95.25C16.0417 95.25 14.9167 95.2083 13.75 95.125C12.6667 95.0417 11.5833 95.0833 10.5 95.25C9.83333 94.5833 9.20833 93.9167 8.625 93.25C8.125 92.5833 7.70833 91.7917 7.375 90.875C6.95833 90.7917 6.75 90.5417 6.75 90.125C6.83333 89.625 6.66667 89.375 6.25 89.375C6.25 89.0417 6.29167 88.7917 6.375 88.625C6.45833 88.4583 6.54167 88.2917 6.625 88.125C6.95833 87.875 7.08333 87.7083 7 87.625C7 87.4583 6.875 87.3333 6.625 87.25C6.45833 87.0833 6.25 86.9167 6 86.75C5.83333 86.5833 5.79167 86.375 5.875 86.125C6.29167 85.375 6.41667 84.5 6.25 83.5C6.16667 82.4167 6.08333 81.3333 6 80.25C5.91667 79.1667 6 78.1667 6.25 77.25C6.5 76.25 7.20833 75.4167 8.375 74.75C11.7917 75.0833 15 74.9167 18 74.25C21.0833 73.5833 23.9583 72.6667 26.625 71.5C29.375 70.3333 31.9583 69.0833 34.375 67.75C36.875 66.3333 39.2917 65.0416 41.625 63.875C41.875 63.0416 42.25 62.3333 42.75 61.75C43.3333 61.1666 43.9167 60.625 44.5 60.125C45.0833 59.5416 45.625 58.9583 46.125 58.375C46.625 57.7083 47 56.9166 47.25 56C47.3333 55.6666 47.3333 55.4166 47.25 55.25C47.1667 55.0833 47.0417 54.9583 46.875 54.875C46.7083 54.7083 46.5417 54.5416 46.375 54.375C46.2083 54.2083 46.125 53.9583 46.125 53.625C45.875 53.5416 45.625 53.4583 45.375 53.375C45.2083 53.2916 45.0417 53.25 44.875 53.25C42.7083 52.1666 40.4167 51.25 38 50.5C35.5833 49.75 33.5417 48.9166 31.875 48C30.875 48.6666 29.875 48.8333 28.875 48.5C27.875 48.1666 26.6667 47.8333 25.25 47.5C21.75 47.3333 18.4167 47 15.25 46.5C12.1667 46 9.16667 45.125 6.25 43.875C6.08333 43.375 5.875 42.9583 5.625 42.625C5.375 42.2083 4.79167 42.0833 3.875 42.25C3.29167 41.4166 2.66667 40.6666 2 40C1.41667 39.25 0.875 38.4166 0.375 37.5Z" fill="#F5F5F5"/>
</svg>
