<svg width="164" height="34" viewBox="0 0 164 34" fill="none" xmlns="http://www.w3.org/2000/svg">
<path d="M18.3813 24.18C18.3813 26.01 18.1413 27.54 17.6613 28.77C17.1813 29.97 16.5363 30.93 15.7263 31.65C14.9463 32.37 14.0463 32.88 13.0263 33.18C12.0063 33.48 10.9563 33.63 9.87625 33.63H9.74125C7.97125 33.63 6.35125 33.15 4.88125 32.19C3.41125 31.23 2.10625 29.85 0.96625 28.05L4.47625 25.665C5.25625 26.985 6.11125 27.975 7.04125 28.635C8.00125 29.265 8.88625 29.58 9.69625 29.58C10.2363 29.58 10.7613 29.505 11.2713 29.355C11.8113 29.175 12.2913 28.89 12.7113 28.5C13.1313 28.08 13.4613 27.525 13.7013 26.835C13.9713 26.115 14.1063 25.23 14.1063 24.18C14.1063 22.56 13.5963 21.15 12.5763 19.95C11.5563 18.75 10.1463 17.64 8.34625 16.62C7.44625 16.11 6.60625 15.6 5.82625 15.09C5.04625 14.55 4.35625 13.965 3.75625 13.335C3.18625 12.675 2.73625 11.925 2.40625 11.085C2.07625 10.245 1.91125 9.24 1.91125 8.07C1.91125 6.84 2.10625 5.76 2.49625 4.83C2.88625 3.87 3.41125 3.075 4.07125 2.445C4.73125 1.815 5.48125 1.335 6.32125 1.005C7.19125 0.674998 8.09125 0.509997 9.02125 0.509997C10.0413 0.509997 10.9263 0.629997 11.6763 0.869998C12.4563 1.11 13.1313 1.44 13.7013 1.86C14.3013 2.28 14.8113 2.79 15.2313 3.39C15.6813 3.96 16.0863 4.59 16.4463 5.28L13.5663 8.07C13.0863 7.32 12.6513 6.72 12.2613 6.27C11.8713 5.82 11.4963 5.475 11.1363 5.235C10.8063 4.965 10.4763 4.785 10.1463 4.695C9.81625 4.605 9.47125 4.56 9.11125 4.56C8.27125 4.56 7.55125 4.875 6.95125 5.505C6.38125 6.135 6.11125 7.005 6.14125 8.115C6.14125 9.075 6.44125 9.84 7.04125 10.41C7.64125 10.98 8.33125 11.535 9.11125 12.075L9.51625 12.345C9.63625 12.405 9.72625 12.465 9.78625 12.525C9.87625 12.585 9.95125 12.645 10.0113 12.705C10.0713 12.765 10.1463 12.825 10.2363 12.885C10.3263 12.915 10.4013 12.96 10.4613 13.02C11.5413 13.71 12.5613 14.43 13.5213 15.18C14.4813 15.93 15.3213 16.74 16.0413 17.61C16.7613 18.48 17.3313 19.455 17.7513 20.535C18.1713 21.615 18.3813 22.83 18.3813 24.18ZM33.4988 0.869998C35.1788 0.869998 36.5738 1.17 37.6838 1.77C38.8238 2.34 39.7388 3.06 40.4288 3.93C41.1188 4.8 41.5988 5.76 41.8688 6.81C42.1688 7.86 42.3188 8.85 42.3188 9.78V33.045H38.0438V9.78C38.0438 9.27 37.9538 8.745 37.7738 8.205C37.5938 7.635 37.3088 7.11 36.9188 6.63C36.5588 6.15 36.0938 5.76 35.5238 5.46C34.9538 5.13 34.2788 4.95 33.4988 4.92C32.7188 4.95 32.0438 5.13 31.4738 5.46C30.9038 5.76 30.4238 6.15 30.0338 6.63C29.6738 7.08 29.3888 7.59 29.1788 8.16C28.9988 8.73 28.9088 9.27 28.9088 9.78V33.045H24.6338V9.78C24.6338 8.85 24.7988 7.86 25.1288 6.81C25.4588 5.76 25.9688 4.8 26.6588 3.93C27.3788 3.06 28.2938 2.34 29.4038 1.77C30.5438 1.17 31.9088 0.869998 33.4988 0.869998ZM49.086 33V1.14H62.766V5.19H53.361V13.065H62.181V17.16H53.361V28.95H63.036V33H49.086ZM77.61 0.869998C79.29 0.869998 80.685 1.17 81.795 1.77C82.935 2.34 83.85 3.06 84.54 3.93C85.23 4.8 85.71 5.76 85.98 6.81C86.28 7.86 86.43 8.85 86.43 9.78V33.045H82.155V17.115H73.02V33.045H68.745V9.78C68.745 8.85 68.91 7.86 69.24 6.81C69.57 5.76 70.08 4.8 70.77 3.93C71.49 3.06 72.405 2.34 73.515 1.77C74.655 1.17 76.02 0.869998 77.61 0.869998ZM73.02 13.02H82.155V9.78C82.155 9.27 82.065 8.745 81.885 8.205C81.705 7.635 81.42 7.11 81.03 6.63C80.67 6.15 80.205 5.76 79.635 5.46C79.065 5.13 78.39 4.95 77.61 4.92C76.83 4.95 76.155 5.13 75.585 5.46C75.015 5.76 74.535 6.15 74.145 6.63C73.785 7.08 73.5 7.59 73.29 8.16C73.11 8.73 73.02 9.27 73.02 9.78V13.02ZM97.4294 11.445L106.159 1.14H111.604L98.9594 15.99L112.234 33H106.924L97.4294 20.76V33H93.1544V1.14H97.4294V11.445ZM122.847 5.19V13.065H131.172V17.115H122.847V33H118.572V1.14H131.847V5.19H122.847ZM137.53 33V1.14H141.805V33H137.53ZM157.715 5.19V33H153.44V5.19H147.545V1.14H163.61V5.19H157.715Z" fill="black"/>
</svg>
